<svg width="116" height="116" viewBox="0 0 116 116" fill="none" xmlns="http://www.w3.org/2000/svg">
<rect width="116" height="116" rx="58" fill="#FF8D41"/>
<rect x="8" y="8" width="100" height="100" rx="50" fill="#B3662C"/>
<path d="M44.4 50.96V65H40.98V59.22H35.66V65H32.24V50.96H35.66V56.46H40.98V50.96H44.4ZM50.2889 53.7V56.54H54.8689V59.18H50.2889V62.26H55.4689V65H46.8689V50.96H55.4689V53.7H50.2889ZM66.4292 62.52H61.1892L60.3492 65H56.7692L61.8492 50.96H65.8092L70.8892 65H67.2692L66.4292 62.52ZM65.5492 59.88L63.8092 54.74L62.0892 59.88H65.5492ZM77.6953 50.96C79.1753 50.96 80.4686 51.2533 81.5753 51.84C82.682 52.4267 83.5353 53.2533 84.1353 54.32C84.7486 55.3733 85.0553 56.5933 85.0553 57.98C85.0553 59.3533 84.7486 60.5733 84.1353 61.64C83.5353 62.7067 82.6753 63.5333 81.5553 64.12C80.4486 64.7067 79.162 65 77.6953 65H72.4353V50.96H77.6953ZM77.4753 62.04C78.7686 62.04 79.7753 61.6867 80.4953 60.98C81.2153 60.2733 81.5753 59.2733 81.5753 57.98C81.5753 56.6867 81.2153 55.68 80.4953 54.96C79.7753 54.24 78.7686 53.88 77.4753 53.88H75.8553V62.04H77.4753Z" fill="#FF8D41"/>
</svg>