<svg width="400" height="400" viewBox="0 0 400 400" fill="none" xmlns="http://www.w3.org/2000/svg">
<g clip-path="url(#clip0_983_18)">
<path d="M293.496 332.858C290.531 336.874 286.948 340.876 283.335 344.469C282.207 345.592 280.691 346.133 279.175 346.056C278.323 346.021 277.475 345.786 276.695 345.347L272.321 342.877C270.519 341.851 268.533 341.187 266.487 340.937C265.634 340.835 264.772 340.799 263.909 340.845C261.807 340.952 259.729 341.136 257.662 341.376C243.708 343.009 230.301 347.235 214.336 347.654C211.09 347.74 207.737 347.669 204.251 347.383C188.429 347.894 171.244 351.824 157.806 348.404C151.523 346.071 146.123 342.478 141.443 337.87C135.466 331.99 130.658 324.446 126.672 315.739C128.749 308.043 130.362 298.335 131.766 287.724C132.766 280.145 136.083 273.046 141.335 267.487C143.734 264.951 146.378 262.506 149.129 260.107C149.639 259.086 164.44 246.837 164.44 246.837L249.675 245.306C250.854 245.76 251.966 246.225 253.023 246.71C253.288 246.832 253.554 246.955 253.814 247.077C259.04 249.583 262.741 252.559 265.293 256.672C267.957 260.954 269.371 266.462 269.957 273.939C269.978 274.209 270.014 274.48 270.07 274.745C270.269 275.761 270.692 276.72 271.325 277.547L273.224 280.028C275.225 282.646 278.073 284.478 281.283 285.228C281.446 285.264 281.605 285.305 281.763 285.346C283.069 285.688 284.213 286.397 285.096 287.372L285.101 287.377C285.81 288.158 286.346 289.107 286.632 290.164C288.73 297.738 293.048 306.471 296.202 315.754C298.166 321.542 297.13 327.938 293.496 332.858Z" fill="#B4C2D1"/>
<path d="M170.678 351.057C166.048 351.057 161.59 350.684 157.491 349.64C157.447 349.629 157.404 349.616 157.361 349.6C143.907 344.602 133.488 333.7 125.512 316.27C125.388 316 125.362 315.694 125.44 315.406C127.282 308.59 128.89 299.742 130.5 287.558C131.554 279.597 134.979 272.354 140.406 266.611C142.554 264.338 145.049 261.975 148.255 259.176C149.497 257.749 154.657 253.278 163.627 245.854C163.85 245.67 164.128 245.567 164.417 245.562L249.652 244.03C249.811 244.023 249.979 244.056 250.133 244.115C264.597 249.684 269.919 257.184 271.227 273.84C271.312 274.916 271.697 275.93 272.34 276.771L274.239 279.254C276.052 281.625 278.656 283.305 281.571 283.984C281.744 284.024 281.916 284.067 282.087 284.111C284.875 284.839 287.088 287.028 287.862 289.823C289.012 293.978 290.857 298.526 292.81 303.34C294.38 307.207 296.002 311.206 297.407 315.344C299.5 321.505 298.423 328.336 294.525 333.617C291.748 337.378 288.189 341.443 284.231 345.374C282.079 347.512 278.723 347.958 276.068 346.458L271.695 343.986C269.299 342.632 266.627 341.985 263.972 342.122C256.479 342.499 249.345 343.866 241.792 345.313C230.27 347.521 218.358 349.803 204.219 348.661C199.219 348.825 193.99 349.342 188.933 349.841C182.833 350.443 176.614 351.057 170.678 351.057ZM158.186 347.184C167.093 349.433 177.58 348.398 188.683 347.302C193.806 346.796 199.103 346.273 204.209 346.108C204.256 346.107 204.306 346.107 204.354 346.112C218.177 347.239 229.938 344.986 241.312 342.807C248.955 341.343 256.173 339.959 263.843 339.573C266.99 339.417 270.134 340.173 272.951 341.765L277.324 344.236C278.986 345.176 281.088 344.9 282.434 343.563C286.3 339.723 289.771 335.759 292.472 332.101C295.874 327.492 296.816 321.535 294.992 316.165C293.609 312.097 292.001 308.133 290.446 304.299C288.464 299.415 286.592 294.801 285.403 290.504C284.871 288.583 283.353 287.079 281.442 286.58C281.293 286.541 281.144 286.505 280.993 286.469C277.502 285.656 274.383 283.644 272.211 280.804L270.313 278.321C269.371 277.088 268.807 275.608 268.684 274.04C267.461 258.48 262.778 251.774 249.448 246.586L164.91 248.105C158.263 253.612 150.984 259.813 150.22 260.768C150.152 260.88 150.067 260.982 149.968 261.069C146.808 263.826 144.359 266.144 142.261 268.364C137.205 273.714 134.013 280.467 133.031 287.893C131.44 299.927 129.846 308.76 128.024 315.624C135.665 332.136 145.535 342.463 158.186 347.184ZM150.27 260.678C150.259 260.701 150.247 260.724 150.233 260.746C150.249 260.72 150.261 260.697 150.27 260.678Z" fill="#371A45"/>
<path d="M280.871 222.862C273.99 237.034 248.663 237.807 248.663 237.807L231.473 155.101L228.001 138.397C228.001 138.397 242.028 135.905 253.528 138.111C259.069 139.17 264.02 141.323 266.537 145.366C275.292 159.414 286.524 211.214 280.871 222.862Z" fill="white"/>
<g opacity="0.25">
<path d="M277.84 179.025C281.891 197.103 284.044 216.318 280.871 222.859C273.992 237.033 248.661 237.807 248.661 237.807L228.004 138.399C228.004 138.399 228.265 138.351 228.747 138.28L244.852 215.788C244.852 215.788 270.182 215.014 277.061 200.841C278.924 197 278.953 188.798 277.84 179.025Z" fill="#371A45"/>
</g>
<path d="M248.662 239.083C247.975 239.083 247.408 238.538 247.387 237.847C247.365 237.143 247.918 236.554 248.622 236.532C248.868 236.525 273.263 235.611 279.722 222.304C284.994 211.443 274.387 160.378 265.454 146.042C258.244 134.473 228.525 139.599 228.225 139.652C227.528 139.776 226.869 139.313 226.746 138.619C226.623 137.925 227.085 137.263 227.779 137.14C229.072 136.911 259.508 131.674 267.62 144.693C276.196 158.455 288.051 210.99 282.018 223.418C274.884 238.115 249.767 239.05 248.701 239.083C248.688 239.083 248.675 239.083 248.662 239.083Z" fill="#371A45"/>
<path d="M277.611 187.023L261.199 191.694C259.734 192.111 258.733 193.461 258.769 194.984C258.899 200.561 259.869 213.426 265.948 216.493C270.994 219.038 277.961 217.189 281.374 212.845C285.192 207.987 283.121 195.599 281.797 189.528C281.386 187.64 279.469 186.494 277.611 187.023Z" fill="white"/>
<g opacity="0.25">
<path d="M258.77 194.986C258.897 200.561 259.87 213.427 265.95 216.491C270.997 219.038 277.961 217.189 281.376 212.844C283.722 209.855 283.842 204.018 283.279 198.557C283.077 201.384 282.343 203.798 281.169 205.523C274.443 215.409 266.197 207.072 266.197 207.072C266.197 207.072 265.588 209.632 264.748 209.942C261.234 211.24 259.655 199.731 258.975 193.757C258.832 194.139 258.758 194.554 258.77 194.986Z" fill="#371A45"/>
</g>
<path d="M271.069 218.929C269.078 218.929 267.117 218.511 265.374 217.632C258.9 214.367 257.658 202.06 257.493 195.014C257.444 192.913 258.824 191.043 260.85 190.467L277.262 185.795C278.484 185.447 279.812 185.622 280.903 186.275C281.993 186.927 282.773 188.014 283.044 189.256C284.544 196.135 286.452 208.449 282.377 213.634C279.718 217.018 275.328 218.928 271.069 218.929ZM278.534 188.169C278.343 188.169 278.15 188.196 277.96 188.25L261.548 192.921C260.641 193.18 260.022 194.015 260.044 194.954C260.139 199.021 260.887 212.511 266.523 215.354C270.893 217.557 277.234 216.048 280.371 212.057C282.875 208.871 282.94 200.759 280.551 189.8C280.428 189.235 280.087 188.761 279.592 188.465C279.265 188.269 278.902 188.169 278.534 188.169Z" fill="#371A45"/>
<path d="M265.464 196.976C267.354 203.812 268.516 214.422 277.421 214.835C279.102 214.93 279.02 217.411 277.327 217.386C266.974 216.476 265.808 205.401 264.162 197.34C263.951 196.494 265.201 196.132 265.464 196.976Z" fill="#371A45"/>
<path d="M258.636 145.94C250.604 148.244 242.526 151.111 235.21 155.114C234.47 155.533 233.527 155.268 233.115 154.523C232.684 153.753 233.005 152.764 233.806 152.393C237.757 150.544 241.813 149.095 245.91 147.84C250.013 146.597 254.137 145.525 258.338 144.655C259.162 144.497 259.457 145.716 258.636 145.94Z" fill="#371A45"/>
<path d="M259.377 232.725C259.173 233.419 258.959 234.113 258.729 234.813C255.008 246.235 245.883 255.06 234.307 258.255C231.056 259.153 227.769 259.74 224.446 260.036C224.181 260.067 223.91 260.087 223.645 260.107L181.793 193.247L199.657 147.312H221.093C248.843 152.319 272.831 188.128 259.377 232.725Z" fill="white"/>
<g opacity="0.25">
<path d="M259.377 232.725C259.173 233.419 258.959 234.114 258.729 234.813C255.008 246.235 245.883 255.06 234.307 258.255C231.056 259.153 227.769 259.74 224.446 260.036C224.069 258.959 223.767 257.857 223.533 256.759C222.502 251.951 222.364 246.914 220.583 242.331C219.562 239.702 218 237.196 217.816 234.384C217.561 230.429 220.062 226.886 222.441 223.717C225.314 219.894 228.182 216.077 231.056 212.254C231.857 211.182 232.674 210.1 233.735 209.278C236.614 207.048 240.845 207.083 243.565 204.654L246.439 200.464C247.904 204.139 247.225 208.314 246.097 212.106C244.969 215.898 243.397 219.619 243.096 223.564C242.8 227.514 244.091 231.898 247.465 233.971C250.006 235.527 253.288 235.487 256.095 234.486C257.259 234.073 258.377 233.475 259.377 232.725Z" fill="#371A45"/>
</g>
<path d="M223.644 261.383C223.207 261.383 222.798 261.159 222.563 260.784L180.712 193.924C180.498 193.582 180.458 193.16 180.604 192.784L198.468 146.85C198.659 146.359 199.131 146.036 199.657 146.036H221.093C221.169 146.036 221.245 146.043 221.32 146.056C234.571 148.446 246.786 157.538 254.832 171C265.696 189.178 267.511 211.981 259.942 235.21C256.064 247.111 246.607 256.186 234.644 259.485C231.125 260.455 227.457 261.093 223.743 261.38C223.71 261.382 223.677 261.383 223.644 261.383ZM183.215 193.113L224.313 258.771C227.602 258.471 230.846 257.885 233.965 257.025C245.101 253.954 253.904 245.504 257.516 234.42C264.852 211.902 263.122 189.844 252.642 172.309C244.997 159.518 233.46 150.878 220.978 148.588H200.53L183.215 193.113Z" fill="#371A45"/>
<path d="M191.503 200.797C191.813 197.285 189.217 194.188 185.706 193.878C182.195 193.568 179.097 196.163 178.787 199.675C178.477 203.186 181.072 206.284 184.584 206.594C188.095 206.904 191.193 204.308 191.503 200.797Z" fill="white"/>
<path d="M197.871 259.342C191.838 258.622 186.147 257.79 181.028 256.79C186.77 269.233 195.201 289.296 184.881 297.646C183.764 298.544 182.467 299.198 181.115 299.677C162.654 306.195 149.981 303.434 144.178 297.452C138.298 291.389 139.483 282.018 148.874 275.674C130.571 251.803 133.69 228.31 148.271 221.476C152.395 219.542 157.433 218.945 163.165 220.042L206.547 225.146L197.871 259.342Z" fill="white"/>
<path d="M161.625 304.704C150.754 304.704 143.583 300.485 140.711 294.786C137.416 288.249 139.916 280.753 147.065 275.395C134.685 258.673 131.445 240.303 138.847 228.313C143.832 220.237 152.767 216.765 163.359 218.78L206.696 223.879C207.061 223.922 207.39 224.12 207.599 224.423C207.807 224.726 207.874 225.103 207.784 225.46L199.107 259.656C198.95 260.277 198.356 260.687 197.719 260.609C192.191 259.947 187.418 259.253 183.216 258.499C188.109 269.256 196.565 289.836 185.682 298.636C184.546 299.556 183.151 300.311 181.537 300.88C173.955 303.558 167.288 304.703 161.625 304.704ZM157.675 220.777C150.5 220.777 144.586 223.874 141.018 229.654C134.022 240.987 137.503 258.746 149.886 274.898C150.1 275.177 150.189 275.532 150.133 275.879C150.077 276.226 149.879 276.534 149.588 276.731C142.737 281.36 140.147 287.996 142.99 293.637C146.855 301.306 160.01 305.775 180.688 298.474C182.027 298.001 183.168 297.388 184.078 296.652C193.077 289.375 186.556 271.813 179.869 257.325C179.668 256.89 179.729 256.379 180.024 256.002C180.32 255.625 180.804 255.444 181.273 255.538C185.714 256.407 190.839 257.195 196.91 257.94L204.953 226.243L163.016 221.31C162.985 221.306 162.955 221.301 162.924 221.295C161.115 220.948 159.36 220.777 157.675 220.777Z" fill="#371A45"/>
<path d="M145.488 276.698C150.589 271.207 162.961 274.828 169.395 276.181C170.036 276.342 169.852 277.312 169.183 277.208C163.464 276.309 157.566 275.147 151.854 276.08C150.054 276.418 148.371 277.131 147.433 278.349C146.319 279.711 144.323 278.027 145.488 276.698Z" fill="#371A45"/>
<path d="M181.38 260.422C180.05 257.916 179.124 255.203 178.558 252.429C178.025 249.661 177.844 246.841 178.093 244.038C178.121 243.612 178.755 243.559 178.848 243.978C178.858 244.011 179.798 247.966 179.808 248.004C180.693 251.752 182.122 255.731 183.486 259.341C184.133 260.755 182.132 261.783 181.38 260.422Z" fill="#371A45"/>
<path d="M179.199 251.941C178.83 251.941 178.464 251.782 178.212 251.475C172.975 245.097 163.076 241.486 153.005 242.278C145.894 242.836 140.202 245.632 137.779 249.758C137.422 250.366 136.639 250.569 136.033 250.212C135.425 249.855 135.222 249.073 135.579 248.465C138.466 243.549 144.745 240.366 152.806 239.734C163.685 238.883 174.435 242.853 180.185 249.856C180.631 250.4 180.553 251.204 180.008 251.651C179.771 251.846 179.484 251.941 179.199 251.941Z" fill="#371A45"/>
<g opacity="0.25">
<path d="M196.85 259.342C190.817 258.622 185.126 257.79 180.007 256.79C185.749 269.233 194.181 289.296 183.861 297.646C182.743 298.544 181.446 299.198 180.094 299.677C161.633 306.195 148.96 303.434 143.157 297.452C145.148 298.162 147.174 298.754 149.251 299.172C155.33 300.392 161.985 299.943 167.232 296.636C168.656 295.732 169.988 294.604 170.805 293.129C172.591 289.914 171.479 285.657 168.947 282.993C166.411 280.329 162.767 279.007 159.153 278.318C154.35 277.409 149.364 277.476 144.587 278.517C149.308 274.143 156.616 274.122 162.889 275.551C165.451 276.133 168.029 276.919 170.647 276.705C173.26 276.496 175.991 274.985 176.685 272.453C177.185 270.636 176.562 268.723 175.94 266.941C172.76 257.821 169.539 248.715 166.278 239.625C164.42 234.455 162.384 229.035 158.173 225.508C154.616 222.517 148.981 221.548 145.204 223.88L146.715 222.568C146.883 222.201 147.062 221.833 147.251 221.476C151.375 219.542 156.412 218.945 162.144 220.042L205.527 225.146L196.85 259.342Z" fill="#371A45"/>
</g>
<g opacity="0.35">
<path d="M178.841 201.17C179.358 204.657 182.603 207.067 186.09 206.55C189.577 206.033 191.987 202.784 191.469 199.297C191.326 198.333 190.975 197.447 190.462 196.687C189.765 198.97 187.807 200.773 185.288 201.147C182.77 201.52 180.373 200.363 179.048 198.38C178.778 199.256 178.698 200.206 178.841 201.17Z" fill="#371A45"/>
</g>
<path d="M185.149 207.894C181.418 207.894 178.141 205.156 177.578 201.358C176.958 197.181 179.853 193.278 184.03 192.658C186.049 192.359 188.073 192.863 189.716 194.083C191.359 195.302 192.429 197.087 192.729 199.111C193.03 201.134 192.524 203.153 191.305 204.797C190.087 206.44 188.301 207.51 186.278 207.81C185.898 207.866 185.522 207.894 185.149 207.894ZM185.165 195.126C184.912 195.126 184.658 195.145 184.404 195.183C181.619 195.596 179.689 198.198 180.102 200.983C180.515 203.768 183.112 205.699 185.903 205.286C187.253 205.086 188.443 204.372 189.256 203.276C190.069 202.181 190.405 200.834 190.205 199.485C190.005 198.136 189.292 196.945 188.196 196.132C187.307 195.473 186.252 195.126 185.165 195.126Z" fill="#371A45"/>
<path d="M194.059 214.921L227.672 211.961C231.65 211.611 234.622 208.069 234.272 204.085L232.696 186.198C232.389 182.711 229.633 180.002 226.279 179.617C225.804 179.559 225.316 179.555 224.82 179.598L191.212 182.557C187.228 182.907 184.257 186.45 184.612 190.433L185.857 204.6L186.183 208.321C186.533 212.304 190.08 215.27 194.059 214.921Z" fill="white"/>
<g opacity="0.35">
<path d="M194.059 214.921L227.672 211.961C231.65 211.611 234.622 208.069 234.272 204.085L232.696 186.198C232.389 182.711 229.633 180.002 226.279 179.617C224.482 181.053 223.342 181.971 223.342 181.971C222.97 196.473 219.511 203.993 201.708 205.854C194.022 206.655 189.061 205.909 185.857 204.6L186.183 208.321C186.533 212.304 190.08 215.27 194.059 214.921Z" fill="#371A45"/>
</g>
<path d="M193.415 216.226C189.041 216.226 185.304 212.871 184.913 208.433L183.338 190.543C182.925 185.851 186.406 181.698 191.098 181.285L224.708 178.326C226.968 178.124 229.186 178.826 230.939 180.295C232.692 181.764 233.768 183.821 233.967 186.086L235.541 203.976C235.741 206.24 235.041 208.453 233.572 210.206C232.103 211.959 230.047 213.034 227.782 213.234L194.171 216.193C193.917 216.215 193.665 216.226 193.415 216.226ZM225.461 180.845C225.286 180.845 225.109 180.852 224.932 180.868L191.321 183.827C188.032 184.117 185.59 187.029 185.88 190.319L187.455 208.209C187.745 211.499 190.664 213.943 193.947 213.651L227.558 210.692C230.848 210.402 233.289 207.49 233 204.199L231.425 186.309C231.285 184.724 230.53 183.282 229.3 182.251C228.206 181.334 226.86 180.845 225.461 180.845Z" fill="#371A45"/>
<path d="M192.698 214.907C193.141 214.959 193.593 214.964 194.058 214.921L227.672 211.961C230.587 211.703 232.961 209.735 233.882 207.127C234.219 206.18 234.363 205.148 234.267 204.086L233.57 196.139L233.34 193.517L232.696 186.198C232.346 182.214 228.798 179.249 224.82 179.598L217.557 180.239C220.96 180.575 223.77 183.302 224.082 186.824L224.935 196.486L225.659 204.717C226.008 208.695 223.037 212.243 219.059 212.592L192.698 214.907Z" fill="white"/>
<g opacity="0.35">
<path d="M192.698 214.907C193.141 214.959 193.593 214.964 194.058 214.921L227.672 211.961C231.65 211.611 234.622 208.069 234.267 204.086L233.34 193.517C232.659 195.459 231.342 197.884 228.933 198.339C227.612 198.592 226.215 197.748 224.935 196.486L225.659 204.716C226.008 208.695 223.037 212.243 219.059 212.592L192.698 214.907Z" fill="#371A45"/>
</g>
<path d="M193.435 216.226C193.142 216.226 192.848 216.21 192.556 216.178L192.585 213.638L218.948 211.32C220.533 211.181 221.973 210.427 223.005 209.196C224.036 207.965 224.527 206.414 224.386 204.829L222.811 186.938C222.559 184.076 220.297 181.791 217.433 181.506L217.447 178.965L224.707 178.325C229.403 177.912 233.555 181.396 233.966 186.087L235.541 203.975C235.741 206.24 235.042 208.453 233.572 210.207C232.103 211.96 230.047 213.035 227.784 213.233L194.171 216.192C193.927 216.214 193.681 216.226 193.435 216.226ZM222.513 181.08C224.099 182.489 225.156 184.478 225.353 186.715L226.928 204.604C227.129 206.868 226.43 209.081 224.96 210.835C224.935 210.866 224.909 210.896 224.882 210.926L227.561 210.691C229.145 210.552 230.585 209.798 231.616 208.568C232.648 207.336 233.139 205.785 232.999 204.2V204.199L231.423 186.309C231.135 183.02 228.219 180.58 224.93 180.867L222.513 181.08Z" fill="#371A45"/>
<path d="M211.629 197.083C211.691 197.744 213.122 202.994 213.122 202.994C213.122 202.994 214.813 202.835 216.889 202.64C219.482 202.397 221.333 199.514 221.022 196.201C220.711 192.889 218.357 190.4 215.763 190.644C214.012 190.808 211.996 190.997 211.996 190.997C211.996 190.997 211.528 196.006 211.629 197.083Z" fill="#22A7F0"/>
<path d="M236.318 267.901C237.512 272.071 237.987 276.434 237.548 280.752C236.247 293.451 228.453 299.82 209.717 302.183C202.985 302.913 197.478 301.545 193.599 298.983C185.116 293.384 184.422 282.064 195.707 274.475C190.108 257.443 191.251 244.821 195.926 236.375C196.079 236.094 196.238 235.818 196.396 235.548C196.467 235.435 196.539 235.318 196.61 235.206C205.95 220.149 227.09 219.624 239.018 232.046L230.775 239.615C230.372 247.322 233.271 257.27 236.318 267.901Z" fill="white"/>
<path d="M238.757 232.298C234.144 228.704 228.886 225.66 223.032 224.77C210.493 222.623 198.693 229.704 194.936 241.909C193.549 246.156 193.134 250.785 193.317 255.269C193.485 260.73 194.565 266.214 196.092 271.447L196.865 274.095C197.023 274.625 196.814 275.18 196.387 275.485C192.387 278.239 188.852 282.396 188.604 287.35C188.302 293.03 192.545 297.53 197.615 299.427C200.513 300.562 203.697 300.986 206.8 300.904C207.712 300.903 208.723 300.804 209.632 300.723C215.059 299.973 220.602 298.908 225.409 296.55C232.919 292.902 235.958 286.634 236.263 278.529C236.349 276.001 236.128 273.454 235.629 270.956C235.25 268.78 234.174 265.569 233.618 263.371C232.211 258.213 230.815 253.046 230.035 247.727C229.7 245.053 229.667 242.263 230.398 239.597C230.454 239.391 230.667 239.27 230.873 239.327C231.02 239.367 231.124 239.487 231.151 239.627C231.648 242.262 232.07 244.782 232.529 247.347C233.388 252.507 234.78 257.592 236.226 262.636L237.332 266.448C239.405 272.999 239.872 280.137 237.752 286.839C234.552 297.092 224.715 301.075 214.981 302.827C212.35 303.307 209.539 303.776 206.86 303.808C202.675 303.908 198.362 303.164 194.62 301.231C189.408 298.666 185.469 293.157 185.912 287.199C186.262 281.328 190.352 276.52 195.029 273.466C195.03 273.462 194.552 274.855 194.552 274.855C192.2 267.645 190.513 260.135 190.686 252.494C190.789 244.819 192.963 236.835 198.184 230.981C205.986 221.998 219.701 219.835 230.305 224.761C232.487 225.728 234.59 227.05 236.365 228.643C237.424 229.56 238.436 230.699 239.282 231.794C239.407 231.951 239.382 232.18 239.224 232.305C239.082 232.422 238.891 232.404 238.757 232.298Z" fill="#371A45"/>
<path d="M193.022 274.884C197.771 270.851 208.113 273.385 211.761 277.976C212.036 278.325 211.535 278.77 211.224 278.444C207.469 275.024 201.108 274.087 196.403 275.737C195.741 276.014 195.185 276.336 194.746 276.763C193.482 277.885 191.793 276.055 193.022 274.884Z" fill="#371A45"/>
<path d="M232.317 254.224C231.935 254.224 231.558 254.053 231.306 253.728C225.509 246.226 217.387 241.796 209.022 241.572C202.725 241.401 196.883 243.715 193.399 247.756C192.94 248.29 192.133 248.349 191.6 247.889C191.066 247.429 191.006 246.623 191.467 246.089C195.504 241.405 201.93 238.823 209.09 239.021C218.225 239.265 227.058 244.057 233.326 252.167C233.756 252.725 233.654 253.526 233.096 253.957C232.864 254.137 232.589 254.224 232.317 254.224Z" fill="#371A45"/>
<g opacity="0.25">
<path d="M236.318 267.901C237.512 272.071 237.987 276.434 237.548 280.752C236.246 293.451 228.453 299.82 209.717 302.183C202.985 302.913 197.478 301.545 193.599 298.983C193.78 299.017 193.962 299.047 194.145 299.076C194.145 299.076 194.416 299.119 194.691 299.157C206.32 300.763 211.141 298.131 211.141 298.131C212.088 297.614 213.77 296.669 215.04 294.701C215.04 294.701 216.592 292.574 216.541 290.006C216.438 284.876 212.606 280.334 207.92 278.246C203.235 276.154 197.86 276.164 192.797 276.981C197.983 273.418 205.093 274.414 210.865 276.92C214.126 278.338 217.587 280.232 221.032 279.354C224.462 278.481 226.702 274.985 227.208 271.489C227.713 267.988 226.835 264.456 225.967 261.026C225.38 258.714 224.788 256.402 224.201 254.095C223.15 249.951 222.078 245.761 220.047 241.999C218.016 238.238 214.897 234.895 210.86 233.481C205.333 231.541 198.616 233.904 195.513 238.87L195.926 236.375L196.064 235.527C196.13 235.599 196.217 235.64 196.314 235.599C196.345 235.584 196.37 235.568 196.396 235.548C196.513 235.471 196.574 235.349 196.61 235.206C205.95 220.149 227.09 219.624 239.018 232.047L230.775 239.616C230.372 247.322 233.271 257.27 236.318 267.901Z" fill="#371A45"/>
</g>
<g opacity="0.35">
<path d="M211.629 197.083C211.691 197.744 213.122 202.994 213.122 202.994C213.122 202.994 214.813 202.835 216.889 202.64C219.482 202.397 221.333 199.514 221.022 196.201C220.711 192.889 218.357 190.4 215.763 190.644C214.012 190.808 211.996 190.997 211.996 190.997C211.996 190.997 211.528 196.006 211.629 197.083Z" fill="#371A45"/>
</g>
<path d="M212.363 204.09L212.137 203.262C211.796 202.011 210.678 197.873 210.613 197.178C210.506 196.039 210.931 191.425 210.98 190.902L211.059 190.06L215.668 189.627C217.238 189.48 218.776 190.104 219.99 191.387C221.14 192.602 221.867 194.278 222.038 196.106C222.21 197.934 221.807 199.716 220.904 201.123C219.95 202.609 218.558 203.509 216.984 203.657L212.363 204.09ZM212.646 196.985C212.689 197.356 213.274 199.639 213.883 201.897L216.793 201.624C217.729 201.536 218.578 200.967 219.186 200.02C219.844 198.995 220.135 197.673 220.006 196.297C219.876 194.921 219.345 193.676 218.507 192.791C217.734 191.974 216.795 191.572 215.858 191.66L212.937 191.934C212.772 193.835 212.588 196.363 212.646 196.985Z" fill="#371A45"/>
<path d="M213.111 202.995C215.704 202.751 217.555 199.869 217.244 196.556C216.933 193.243 214.579 190.755 211.985 190.998C209.392 191.242 207.541 194.124 207.852 197.437C208.162 200.75 210.517 203.238 213.111 202.995Z" fill="#22A7F0"/>
<g opacity="0.35">
<path d="M213.124 202.993C215.715 202.75 217.565 199.867 217.255 196.555C217.182 195.794 217.006 195.075 216.739 194.427C216.507 197.128 214.824 199.277 212.603 199.486C210.605 199.673 208.747 198.239 207.86 196.056C207.82 196.503 207.82 196.965 207.864 197.435C208.174 200.751 210.529 203.235 213.124 202.993Z" fill="#371A45"/>
</g>
<g opacity="0.7">
<path d="M208.169 198.976C208.169 195.982 209.932 193.497 212.333 193.272C214.504 193.066 216.512 194.781 217.288 197.292C217.289 197.052 217.277 196.803 217.255 196.555C216.946 193.243 214.59 190.754 211.996 190.997C209.401 191.24 207.551 194.123 207.864 197.435C207.915 197.973 208.017 198.489 208.169 198.976Z" fill="white"/>
</g>
<path d="M212.776 204.031C209.805 204.031 207.192 201.218 206.847 197.532C206.675 195.703 207.078 193.921 207.981 192.514C208.935 191.028 210.327 190.129 211.901 189.981C215.055 189.683 217.909 192.592 218.272 196.459C218.443 198.288 218.041 200.069 217.137 201.477C216.183 202.963 214.791 203.862 213.217 204.01C213.07 204.024 212.922 204.031 212.776 204.031ZM212.35 192.001C212.264 192.001 212.178 192.006 212.091 192.014C211.156 192.101 210.307 192.671 209.699 193.617C209.041 194.642 208.75 195.965 208.879 197.341C209.137 200.088 211.003 202.163 213.027 201.977C213.962 201.89 214.811 201.32 215.419 200.374C216.077 199.349 216.368 198.026 216.239 196.65C215.992 194.02 214.276 192.001 212.35 192.001Z" fill="#371A45"/>
<path d="M204.495 214.892C203.982 214.892 203.54 214.507 203.481 213.985L202.513 205.333C202.274 203.193 201.229 201.256 199.572 199.88L199.065 199.459C196.943 197.697 195.597 195.111 195.37 192.363L194.536 182.269C194.489 181.708 194.907 181.215 195.469 181.168C196.033 181.117 196.524 181.54 196.57 182.101L197.404 192.195C197.586 194.4 198.667 196.475 200.369 197.888L200.876 198.309C202.942 200.024 204.244 202.438 204.543 205.106L205.511 213.758C205.573 214.318 205.17 214.823 204.61 214.886C204.571 214.89 204.533 214.892 204.495 214.892Z" fill="#371A45"/>
<path d="M270.161 188.906C270.726 193.84 266.138 196.435 266.138 196.435C266.138 196.435 259.923 200.925 231.778 202.531C231.778 202.531 222.732 195.658 231.738 189.285C231.738 189.285 251.506 189.273 263.858 183.858C266.085 182.882 269.657 184.498 270.161 188.906Z" fill="white"/>
<g opacity="0.25">
<path d="M270.159 188.906C270.728 193.839 266.139 196.436 266.139 196.436C266.139 196.436 259.924 200.926 231.778 202.53C231.778 202.53 226.659 198.639 227.959 194C227.971 194.022 227.983 194.044 227.995 194.065C229.243 196.314 231.716 197.606 234.282 197.429C259.678 195.677 265.412 191.534 265.412 191.534C265.412 191.534 268.623 189.717 269.341 186.238C269.749 186.972 270.04 187.858 270.159 188.906Z" fill="#371A45"/>
</g>
<path d="M231.381 203.832L231.006 203.547C230.818 203.404 226.394 199.989 226.471 195.415C226.517 192.751 228.04 190.339 231.001 188.244L231.332 188.01L231.737 188.01C231.933 188.009 251.385 187.933 263.346 182.69C264.76 182.069 266.5 182.212 267.996 183.073C269.888 184.16 271.139 186.234 271.429 188.761C272.056 194.237 267.389 197.178 266.816 197.517C266.022 198.041 258.848 202.265 231.851 203.805L231.381 203.832ZM232.157 190.558C230.109 192.09 229.056 193.733 229.023 195.449C228.972 198.112 231.312 200.436 232.209 201.228C258.884 199.658 265.341 195.434 265.404 195.391L265.51 195.325C265.662 195.236 269.352 193.061 268.894 189.052C268.625 186.705 267.419 185.684 266.724 185.285C265.939 184.833 265.036 184.734 264.37 185.027C252.766 190.114 235.165 190.525 232.157 190.558Z" fill="#371A45"/>
<path d="M170.498 158.03C155.764 184.06 149.129 212.641 163.371 216.057L174.138 213.152L189.9 150.05L170.498 158.03Z" fill="white"/>
<g opacity="0.25">
<path d="M176.69 196.309L165.923 199.214C160.731 197.969 158.317 193.377 158.054 186.787C153.72 201.881 154.442 213.915 163.371 216.057L174.138 213.152L189.9 150.05L188.055 150.809L176.69 196.309Z" fill="#371A45"/>
</g>
<path d="M163.371 217.333C163.272 217.333 163.171 217.321 163.074 217.298C159.652 216.477 157.175 214.353 155.71 210.984C150.712 199.491 158.978 175.791 169.387 157.402C169.528 157.153 169.748 156.959 170.012 156.85L189.414 148.871C189.858 148.688 190.369 148.769 190.734 149.085C191.099 149.4 191.254 149.893 191.138 150.36L175.375 213.461C175.264 213.91 174.917 214.263 174.47 214.384L163.703 217.289C163.595 217.318 163.483 217.333 163.371 217.333ZM171.392 159.042C159.411 180.339 154.05 200.768 158.05 209.966C159.149 212.495 160.89 214.058 163.363 214.737L173.082 212.115L188.05 152.191L171.392 159.042Z" fill="#371A45"/>
<path d="M146.306 136.734C151.622 145.036 159.071 152.046 168.223 156.891C170.09 157.878 172.021 158.776 174.02 159.575C174.991 159.966 175.986 160.331 176.994 160.68C180.039 161.716 183.11 162.493 186.189 163.021C188.842 163.482 191.501 163.755 194.144 163.856C197.335 163.979 200.507 163.841 203.632 163.464C204.771 163.323 205.904 163.153 207.029 162.953C227.616 159.254 245.708 144.997 253.134 124.094C264.081 93.3037 247.734 59.7645 216.633 49.1779C210.641 47.1432 204.534 46.098 198.508 45.9778C197.804 45.9571 197.096 45.9566 196.389 45.9708C194.499 45.996 192.62 46.1096 190.757 46.311C186.448 46.7781 182.223 47.7093 178.158 49.0642C174.093 50.4142 170.179 52.1935 166.498 54.3612C165.328 55.0497 164.179 55.7762 163.055 56.5455C161.37 57.6991 159.74 58.9327 158.173 60.2608C150.354 66.8499 144.137 75.5061 140.493 85.7643C134.195 103.476 136.931 122.094 146.306 136.734Z" fill="white"/>
<path d="M196.41 164.077C195.65 164.077 194.892 164.062 194.137 164.033C191.449 163.931 188.765 163.649 186.159 163.195C183.051 162.662 179.948 161.873 176.937 160.848C175.834 160.467 174.858 160.104 173.953 159.739C171.989 158.954 170.033 158.049 168.14 157.048C159.197 152.314 151.595 145.322 146.156 136.83C136.346 121.509 134.22 102.875 140.326 85.705C143.853 75.7738 149.986 66.9286 158.059 60.1254C159.583 58.8334 161.23 57.5795 162.954 56.3993C164.061 55.6422 165.223 54.9052 166.408 54.2084C170.1 52.0341 174.035 50.2467 178.102 48.8959C182.207 47.5277 186.458 46.5988 190.738 46.1347C192.602 45.9333 194.502 45.8185 196.387 45.7936C197.142 45.7782 197.837 45.7807 198.513 45.8007C204.664 45.9233 210.78 47.0031 216.69 49.0099C231.838 54.1662 243.981 64.8641 250.884 79.1327C257.731 93.288 258.59 109.277 253.301 124.153C246.123 144.358 228.404 159.292 207.06 163.127C205.935 163.327 204.789 163.5 203.654 163.64C201.246 163.931 198.818 164.077 196.41 164.077ZM146.455 136.638C151.861 145.079 159.416 152.029 168.306 156.734C170.187 157.729 172.132 158.629 174.085 159.41C174.985 159.772 175.956 160.133 177.052 160.513C180.045 161.531 183.129 162.316 186.219 162.846C188.811 163.297 191.479 163.577 194.15 163.679C197.276 163.799 200.461 163.668 203.611 163.288C204.739 163.149 205.878 162.977 206.998 162.778C228.216 158.966 245.831 144.12 252.967 124.035C258.224 109.248 257.371 93.3564 250.564 79.2873C243.704 65.1047 231.633 54.4714 216.576 49.3459C210.7 47.3505 204.62 46.2773 198.504 46.1552C197.831 46.1352 197.141 46.1332 196.393 46.1481C194.518 46.173 192.628 46.2873 190.776 46.4872C186.522 46.9486 182.295 47.8722 178.214 49.2323C174.17 50.5756 170.259 52.3524 166.588 54.514C165.41 55.2066 164.255 55.9395 163.154 56.692C161.441 57.8653 159.803 59.1117 158.288 60.3961C150.262 67.1593 144.166 75.9518 140.66 85.8236C134.591 102.89 136.704 121.411 146.455 136.638Z" fill="#371A45"/>
<g opacity="0.25">
<path d="M253.134 124.093C245.709 144.998 227.615 159.256 207.027 162.952C205.902 163.153 204.771 163.324 203.633 163.463C200.507 163.842 197.335 163.977 194.145 163.856C191.502 163.753 188.842 163.482 186.191 163.021C183.11 162.494 180.04 161.718 176.993 160.682C175.986 160.329 174.992 159.967 174.019 159.577C172.02 158.777 170.091 157.876 168.223 156.89C159.071 152.045 151.621 145.038 146.304 136.732C143.383 132.172 141.105 127.222 139.545 122.035C144.802 129.843 151.984 136.432 160.715 141.055C162.581 142.046 164.512 142.942 166.511 143.742C167.481 144.133 168.475 144.496 169.485 144.847C172.532 145.883 175.602 146.659 178.68 147.188C181.334 147.647 183.991 147.92 186.633 148.023C189.824 148.144 192.999 148.007 196.122 147.63C197.263 147.488 198.395 147.318 199.52 147.117C220.107 143.421 238.198 129.164 245.626 108.258C249.962 96.0625 250.012 83.4375 246.564 71.9799C256.547 86.7866 259.596 105.919 253.134 124.093Z" fill="#371A45"/>
</g>
<path d="M196.41 165.265C195.634 165.265 194.861 165.25 194.091 165.221C191.351 165.116 188.614 164.829 185.956 164.366C182.789 163.823 179.625 163.018 176.554 161.973C175.427 161.583 174.433 161.214 173.509 160.842C171.509 160.042 169.514 159.119 167.585 158.099C158.46 153.268 150.704 146.135 145.155 137.47C135.145 121.838 132.977 102.825 139.206 85.3067C142.804 75.1773 149.059 66.1553 157.293 59.2164C158.846 57.9005 160.525 56.6217 162.283 55.4186C163.413 54.6459 164.598 53.8942 165.806 53.1837C169.569 50.9676 173.581 49.1451 177.728 47.7679C181.912 46.3734 186.246 45.4261 190.609 44.9529C192.511 44.7476 194.449 44.6306 196.371 44.605C197.136 44.5896 197.852 44.5918 198.548 44.6126C204.81 44.7374 211.046 45.8382 217.072 47.8846C232.524 53.1444 244.912 64.0579 251.954 78.6151C258.941 93.059 259.817 109.373 254.421 124.551C247.1 145.157 229.033 160.387 207.27 164.297C206.122 164.501 204.955 164.677 203.8 164.82C201.341 165.116 198.865 165.265 196.41 165.265ZM147.456 135.997C152.752 144.266 160.153 151.074 168.862 155.684C170.706 156.659 172.612 157.541 174.527 158.307C175.411 158.663 176.363 159.017 177.441 159.39C180.369 160.385 183.392 161.155 186.421 161.675C188.962 162.117 191.577 162.391 194.196 162.491C197.261 162.611 200.381 162.481 203.469 162.108C204.572 161.972 205.691 161.803 206.79 161.608C227.588 157.871 244.854 143.321 251.847 123.637C256.997 109.152 256.161 93.5856 249.495 79.8046C242.774 65.9108 230.947 55.4931 216.193 50.4709C210.434 48.5153 204.474 47.4631 198.481 47.3437C197.817 47.3242 197.146 47.3225 196.417 47.3364C194.571 47.3611 192.719 47.4729 190.903 47.6689C186.734 48.1211 182.591 49.0266 178.59 50.3601C174.625 51.6772 170.79 53.4192 167.191 55.5383C166.036 56.2177 164.903 56.9358 163.825 57.6731C162.146 58.8233 160.541 60.0447 159.057 61.303C151.19 67.9324 145.216 76.5484 141.78 86.2217C135.835 102.939 137.904 121.081 147.456 135.997Z" fill="#371A45"/>
<path d="M196.41 165.175C195.635 165.175 194.863 165.161 194.094 165.131C191.359 165.027 188.625 164.739 185.971 164.278C182.809 163.736 179.649 162.931 176.583 161.888C175.458 161.499 174.465 161.13 173.543 160.758C171.545 159.96 169.553 159.038 167.627 158.019C158.516 153.196 150.772 146.074 145.231 137.422C135.236 121.813 133.071 102.829 139.291 85.3369C142.884 75.2226 149.129 66.2141 157.351 59.2851C158.902 57.9711 160.579 56.6943 162.334 55.4929C163.462 54.7214 164.645 53.9707 165.851 53.2614C169.61 51.0483 173.615 49.2284 177.756 47.8532C181.934 46.4609 186.262 45.5151 190.619 45.0424C192.518 44.8373 194.453 44.7206 196.372 44.695C197.138 44.6796 197.851 44.6821 198.546 44.7026C204.798 44.8271 211.026 45.9265 217.043 47.9697C232.472 53.2219 244.841 64.1191 251.873 78.6543C258.85 93.0764 259.725 109.366 254.337 124.521C247.027 145.097 228.986 160.304 207.255 164.209C206.108 164.412 204.943 164.588 203.789 164.731C201.335 165.026 198.861 165.175 196.41 165.175ZM147.38 136.046C152.684 144.328 160.098 151.146 168.82 155.764C170.667 156.74 172.576 157.624 174.493 158.39C175.379 158.747 176.333 159.101 177.412 159.475C180.344 160.472 183.372 161.243 186.405 161.763C188.95 162.206 191.57 162.481 194.193 162.581C197.262 162.7 200.387 162.571 203.48 162.197C204.585 162.06 205.705 161.892 206.806 161.696C227.635 157.954 244.927 143.382 251.932 123.667C257.09 109.159 256.253 93.5683 249.576 79.7656C242.844 65.8498 230.999 55.4158 216.222 50.386C210.454 48.4273 204.486 47.3733 198.483 47.2537C197.818 47.2342 197.145 47.2317 196.415 47.2466C194.567 47.2713 192.713 47.3833 190.894 47.5796C186.718 48.0325 182.569 48.9392 178.562 50.2747C174.59 51.5938 170.75 53.3387 167.146 55.461C165.989 56.1414 164.855 56.8607 163.775 57.5989C162.093 58.7507 160.486 59.9741 158.999 61.2344C151.119 67.874 145.137 76.5032 141.695 86.1914C135.741 102.935 137.814 121.106 147.38 136.046Z" fill="#371A45"/>
<path d="M156.048 148.312C192.55 169.878 238.893 149.309 238.643 107.582C238.472 79.193 210.187 57.6399 182.581 59.7441C162.489 61.2755 143.488 71.4446 137.145 102.868C137.145 102.868 136.51 117.191 141.041 126.371C145.571 135.552 151.552 143.714 151.552 143.714L156.048 148.312Z" fill="#371A45"/>
<path d="M238.641 107.582C238.892 149.309 192.548 169.876 156.048 148.313L155.138 147.38C193.993 151.39 230.759 125.951 231.3 83.7512C235.861 90.7117 238.587 98.8216 238.641 107.582Z" fill="#220F2D"/>
<path d="M187.081 164.422C186.777 164.422 186.475 164.42 186.17 164.415L185.954 164.395C182.782 163.851 179.617 163.046 176.545 162.001C175.417 161.611 174.422 161.241 173.499 160.869C171.497 160.069 169.501 159.145 167.571 158.124C158.442 153.292 150.683 146.155 145.131 137.486C135.116 121.846 132.946 102.824 139.178 85.2971C142.779 75.1628 149.036 66.1367 157.275 59.1943L157.384 59.102L157.51 59.0339C164.43 55.2939 172.604 53.0417 181.806 52.3403C198.367 51.0791 215.82 57.2951 228.494 68.9712C239.904 79.4822 246.236 93.1633 246.321 107.495C246.413 123.099 240.898 136.866 230.373 147.31C219.384 158.213 203.648 164.422 187.081 164.422ZM186.318 161.627C202.425 161.809 217.77 155.884 228.408 145.329C238.389 135.426 243.619 122.348 243.531 107.511C243.45 93.9623 237.438 81.0038 226.603 71.0231C214.487 59.862 197.816 53.9181 182.018 55.122C173.265 55.7892 165.509 57.9084 158.962 61.4201C151.156 68.0314 145.226 76.6076 141.807 86.2314C135.866 102.94 137.934 121.073 147.48 135.982C152.773 144.246 160.171 151.051 168.876 155.658C170.719 156.633 172.624 157.515 174.537 158.279C175.421 158.636 176.373 158.989 177.45 159.362C180.342 160.346 183.327 161.109 186.318 161.627Z" fill="#371A45"/>
<path d="M264.891 103.099C266.378 114.624 260.726 125.201 252.266 126.723C243.805 128.244 235.742 120.134 234.256 108.609C234.245 108.537 234.238 108.46 234.231 108.387C232.842 96.949 238.48 86.4955 246.881 84.9854C253.417 83.8096 259.716 88.3826 262.929 95.8355C263.874 98.0303 264.553 100.478 264.891 103.099Z" fill="white"/>
<g opacity="0.25">
<path d="M264.891 103.099C266.378 114.624 260.726 125.201 252.266 126.723C243.805 128.245 235.742 120.134 234.256 108.609C234.245 108.537 234.237 108.46 234.231 108.387C235.313 109.403 236.911 110.307 238.822 109.562C242.168 108.255 247.377 99.7353 247.377 99.7353C247.377 99.7353 254.11 98.0003 262.929 95.8355C263.874 98.0303 264.553 100.478 264.891 103.099Z" fill="#371A45"/>
</g>
<path d="M250.196 128.303C247.29 128.303 244.431 127.32 241.815 125.403C237.043 121.908 233.784 115.851 232.873 108.787C231.295 96.5536 237.469 85.2604 246.636 83.6122C250.324 82.9476 254.025 83.8793 257.334 86.3034C262.106 89.7992 265.365 95.8559 266.276 102.92C267.854 115.153 261.68 126.446 252.513 128.095C251.74 128.234 250.966 128.303 250.196 128.303ZM248.934 86.1962C248.333 86.1962 247.731 86.2499 247.13 86.3578C239.404 87.7472 234.249 97.6486 235.639 108.43C236.441 114.647 239.367 120.151 243.464 123.153C246.142 125.115 249.1 125.874 252.019 125.349C259.745 123.959 264.9 114.058 263.51 103.277C262.708 97.0597 259.782 91.5555 255.685 88.5538C253.559 86.9958 251.255 86.1962 248.934 86.1962Z" fill="#371A45"/>
<path d="M255.308 123.651C262.289 123.426 267.705 115.757 267.407 106.524C267.108 97.2899 261.208 89.9873 254.228 90.2129C247.248 90.4385 241.831 98.1068 242.13 107.34C242.428 116.574 248.328 123.877 255.308 123.651Z" fill="white"/>
<path d="M255.012 123.855C253.868 123.855 252.715 123.65 251.574 123.238C244.733 120.768 240.582 111.455 242.321 102.476C243.29 97.471 245.909 93.429 249.505 91.3868C252.18 89.8675 255.099 89.6082 257.946 90.6358C264.787 93.1055 268.938 102.419 267.199 111.397C266.229 116.402 263.611 120.444 260.015 122.487C258.413 123.397 256.722 123.855 255.012 123.855ZM254.509 90.3881C252.861 90.3881 251.232 90.8298 249.687 91.7072C246.185 93.6965 243.632 97.6471 242.683 102.546C240.977 111.354 245.021 120.481 251.699 122.891C254.441 123.881 257.255 123.631 259.833 122.166C263.335 120.177 265.888 116.227 266.837 111.327C268.543 102.52 264.498 93.3932 257.821 90.9826C256.722 90.5856 255.611 90.3881 254.509 90.3881Z" fill="#371A45"/>
<g opacity="0.25">
<path d="M243.819 115.533C242.65 112.589 242.296 109.313 242.649 106.144C245.889 112.631 252.517 114.573 257.987 110.4C261.523 107.705 263.759 103.073 264.302 98.1702C264.509 98.578 264.699 99.0105 264.877 99.4566C267.851 106.954 265.549 116.632 259.733 121.071C253.917 125.51 246.793 123.027 243.819 115.533Z" fill="#371A45"/>
</g>
<path d="M255.392 125.055C253.251 125.055 251.133 124.325 249.181 122.901C245.329 120.09 242.582 114.834 241.833 108.84C240.57 98.7355 245.304 89.4327 252.385 88.1024C255.115 87.5892 257.872 88.277 260.358 90.0912C264.211 92.9022 266.958 98.1586 267.707 104.153C268.969 114.257 264.235 123.559 257.154 124.89C256.567 125 255.979 125.055 255.392 125.055ZM254.128 90.7297C253.718 90.7297 253.308 90.7675 252.9 90.8442C247.241 91.9077 243.518 99.8252 244.601 108.494C245.256 113.738 247.583 118.282 250.826 120.647C252.674 121.996 254.684 122.515 256.639 122.148C262.297 121.085 266.02 113.167 264.938 104.498C264.283 99.2541 261.956 94.7106 258.713 92.3449C257.251 91.2773 255.686 90.7297 254.128 90.7297Z" fill="#371A45"/>
<g opacity="0.5">
<path d="M196.178 73.256C196.178 73.256 171.648 76.6852 159.088 91.7164C159.075 91.7322 159.062 91.748 159.048 91.7638C156.408 94.9296 154.677 98.7385 154.01 102.776C153.127 108.117 153.311 111.919 153.603 115.259C154.496 125.416 156.84 129.997 156.84 129.997C150.513 125.173 146.678 119.387 145.849 110.934C145.77 110.1 145.719 109.238 145.695 108.351C145.689 108.146 145.687 107.944 145.689 107.739C145.684 107.738 145.686 107.733 145.691 107.727C145.771 105.926 145.966 103.562 146.412 100.912C147.752 92.9199 151.348 82.3237 160.853 76.6795C178.627 66.1258 196.933 72.1166 196.178 73.256Z" fill="white"/>
</g>
<g opacity="0.5">
<path d="M220.667 104.15C224.793 102.59 226.686 97.4831 224.894 92.7432C223.102 88.0034 218.305 85.4254 214.179 86.9853C210.052 88.5451 208.16 93.652 209.951 98.3919C211.743 103.132 216.541 105.71 220.667 104.15Z" fill="white"/>
</g>
<g opacity="0.5">
<path d="M224.85 114.613C226.486 113.813 227.067 111.641 226.148 109.76C225.229 107.879 223.158 107.003 221.522 107.802C219.886 108.602 219.305 110.774 220.223 112.655C221.142 114.536 223.214 115.412 224.85 114.613Z" fill="white"/>
</g>
<path d="M209.007 170.841C208.073 173.822 205.485 175.96 201.954 175.639C197.871 182.468 195.911 191.267 195.441 201.454C186.229 212.177 175.5 218.036 162.144 215.449L161.888 203.455C162.011 201.086 162.2 198.754 162.455 196.462C163.915 183.243 167.544 171.229 173.627 160.582C174.679 156.678 176.154 153.309 178.307 150.788C179.558 149.323 181.967 149.634 182.702 151.411C182.957 152.028 183.09 152.778 183.069 153.692C190.215 148.588 199.912 146.036 202.974 155.223C206.037 155.223 208.078 159.306 206.547 161.348C209.293 164.344 209.911 167.983 209.007 170.841Z" fill="white"/>
<g opacity="0.25">
<path d="M209.007 170.841C208.073 173.822 205.485 175.96 201.954 175.639C197.871 182.468 195.911 191.267 195.441 201.454C186.229 212.177 175.5 218.036 162.144 215.449L161.888 203.455C162.011 201.086 162.2 198.754 162.455 196.462L162.572 196.401C163.583 199.938 167.773 201.536 171.448 201.561C177.598 201.597 183.845 198.351 186.719 192.92C187.699 191.068 188.275 189.041 188.975 187.071C190.97 181.391 193.987 176.072 197.825 171.433C198.748 170.32 199.779 169.203 201.142 168.718C202.505 168.233 204.281 168.605 204.939 169.897C205.149 170.315 205.235 170.8 205.526 171.173C205.986 171.76 206.853 171.887 207.568 171.673C208.104 171.515 208.568 171.198 209.007 170.841Z" fill="#371A45"/>
</g>
<path d="M161.368 203.427C160.939 188.833 165.572 171.654 172.327 160.233C173.277 156.7 174.687 153.021 177.149 150.096C177.365 149.804 177.727 149.482 178.029 149.258C179.983 147.835 183.029 148.628 183.904 150.917C184.285 151.873 184.368 152.83 184.345 153.717L182.328 152.654C187.932 148.524 197.907 144.655 202.749 151.838C203.378 152.78 203.836 153.794 204.185 154.82L202.975 153.947C203.944 153.947 204.898 154.269 205.66 154.778C207.941 156.332 209.277 159.62 207.568 162.113L207.488 160.486C209.967 163.154 211.299 167.034 210.379 170.667C209.532 174.516 205.844 177.39 201.838 176.909L203.049 176.293C200.843 180.004 199.367 184.153 198.393 188.42C197.419 192.695 196.929 197.095 196.717 201.513C196.704 201.808 196.59 202.078 196.41 202.285C192.17 207.195 187.2 211.636 181.252 214.419C175.295 217.283 168.357 218 161.901 216.701C161.209 216.568 160.756 215.9 160.889 215.208C161.022 214.514 161.693 214.061 162.386 214.196C165.388 214.771 168.453 214.941 171.466 214.6C174.479 214.267 177.419 213.395 180.174 212.106C185.754 209.493 190.454 205.278 194.474 200.622L194.168 201.395C194.385 196.863 194.887 192.32 195.905 187.851C196.924 183.391 198.478 178.987 200.86 174.981C201.118 174.547 201.597 174.323 202.069 174.368C204.872 174.696 207.291 172.758 207.903 170.051C208.599 167.277 207.542 164.295 205.607 162.21C205.191 161.747 205.173 161.065 205.526 160.582C206.25 159.431 205.333 157.601 204.256 156.909C203.847 156.639 203.41 156.501 202.965 156.499C202.406 156.494 201.934 156.128 201.764 155.626C201.19 153.92 200.258 152.4 198.907 151.48C194.251 148.581 187.869 151.927 183.811 154.73C183.006 155.345 181.769 154.691 181.794 153.696C181.759 152.681 181.728 151.539 180.676 151.222C180.192 151.107 179.667 151.258 179.35 151.625C179.29 151.683 179.104 151.925 179.033 152.009C177.023 154.588 175.818 157.687 174.926 160.939C171.308 167.474 168.347 174.388 166.416 181.626C164.477 188.787 163.384 196.115 162.409 203.482C162.372 203.768 162.11 203.97 161.824 203.933C161.565 203.9 161.374 203.681 161.368 203.427Z" fill="#371A45"/>
<path d="M199.833 177.214C200.807 174.663 202.14 172.075 204.271 170.301C204.411 170.181 204.625 170.198 204.743 170.341C204.847 170.467 204.843 170.647 204.74 170.768C203.066 172.75 202.29 175.265 201.798 177.775C201.466 179.204 199.362 178.608 199.833 177.214Z" fill="#371A45"/>
<path d="M203.771 156.65C202.313 156.366 200.959 155.74 199.463 155.585C197.892 155.376 196.274 155.424 194.695 155.758C194.353 155.83 194.017 155.611 193.945 155.269C193.881 154.966 194.046 154.668 194.322 154.554C195.926 153.889 197.671 153.517 199.413 153.479C201.156 153.437 202.881 153.717 204.508 154.207C205.18 154.409 205.561 155.118 205.359 155.79C205.156 156.477 204.438 156.825 203.771 156.65Z" fill="#371A45"/>
<path d="M185.512 153.599C183.228 155.272 180.766 156.616 178.552 158.403C178.106 158.751 177.499 158.178 177.815 157.714C179.473 155.194 181.779 153.158 184.204 151.407C184.77 150.999 185.561 151.126 185.969 151.693C186.449 152.355 186.167 153.189 185.512 153.599Z" fill="#371A45"/>
<path d="M195.863 196.939C195.663 196.939 195.461 196.88 195.284 196.758C187.662 191.496 177.547 189.652 163.465 190.951C162.905 191.002 162.406 190.589 162.355 190.028C162.303 189.467 162.716 188.97 163.277 188.918C177.869 187.572 188.406 189.53 196.444 195.078C196.908 195.398 197.024 196.034 196.704 196.498C196.506 196.785 196.187 196.939 195.863 196.939Z" fill="#371A45"/>
<path d="M244.826 175.639C252.857 214.57 241.092 235.875 197.36 228.719C194.087 231.478 190.673 231.977 187.153 230.76C180.007 249.645 152.446 231.781 161.123 216.469C162.385 214.553 163.699 212.763 165.062 211.098C169.966 205.109 177.231 201.554 184.968 201.343C190.393 201.195 196.164 201.405 202.171 201.858C205.821 202.133 209.408 200.455 211.324 197.336C217.905 186.627 210.913 166.756 229.004 162.879C235.299 163.69 240.735 167.398 244.826 175.639Z" fill="white"/>
<g opacity="0.25">
<path d="M193.367 223.834C192.947 223.963 192.525 224.061 192.101 224.128C189.19 224.588 186.457 225.942 184.51 228.154C177.215 236.435 162.9 229.166 159.981 219.125C155.549 233.711 180.417 248.56 187.153 230.76C190.673 231.977 194.087 231.478 197.36 228.719C234.366 234.775 248.48 220.448 247.08 192.309C245.916 213.548 233.66 224.912 206.116 222.665C201.83 222.315 197.479 222.571 193.367 223.834Z" fill="#371A45"/>
</g>
<path d="M245.114 175.579C246.402 179.224 246.892 183.051 247.39 186.86C248.289 194.523 248.466 202.418 246.348 209.941C241.464 227.642 225.186 232.089 208.673 231.226C204.804 231.022 200.967 230.56 197.154 229.978L198.183 229.694C195.106 232.429 190.672 233.46 186.736 231.966L188.346 231.212C187.137 234.297 185.152 237.224 182.129 238.796C172.987 243.372 161.469 235.74 158.75 226.68C157.659 223.077 158.146 219.024 160.064 215.75C160.728 214.802 161.38 213.777 162.078 212.868C166.541 206.333 173.601 201.52 181.504 200.427C184.627 199.969 187.683 200.088 190.795 200.115C194.588 200.186 198.446 200.41 202.228 200.707C207.86 201.05 210.905 197.369 212.286 192.29C215.387 180.841 212.91 164.599 228.902 162.402C229.17 162.367 229.415 162.555 229.451 162.823C229.481 163.056 229.342 163.273 229.129 163.348C223.105 165.202 219.086 168.758 217.5 174.962C215.093 182.847 216.638 195.817 209.255 201.085C207.158 202.526 204.581 203.187 202.055 203.004L199.795 202.855C193.851 202.58 187.779 202.167 181.873 202.859C174.589 203.905 168.221 208.332 164.13 214.378C163.316 215.532 162.382 216.699 161.802 217.995C159.258 223.137 161.691 229.282 165.73 232.946C172.344 239.091 182.359 240.018 185.959 230.309C186.21 229.662 186.928 229.336 187.574 229.556C189.129 230.099 190.747 230.267 192.282 229.938C193.831 229.619 195.283 228.799 196.566 227.721C196.859 227.49 197.225 227.407 197.566 227.459C201.298 228.05 205.045 228.521 208.802 228.741C230.81 229.97 245.278 221.835 246.267 198.343C246.445 194.582 246.269 190.793 245.884 187.026C245.535 183.246 244.764 179.536 244.538 175.698C244.527 175.534 244.652 175.391 244.817 175.382C244.952 175.374 245.071 175.458 245.114 175.579Z" fill="#371A45"/>
<path d="M231.327 227.861C231.18 227.861 231.03 227.835 230.884 227.781C230.223 227.537 229.886 226.802 230.13 226.142C232.142 220.709 230.948 213.49 227.013 207.304C223.232 201.358 217.755 197.672 211.986 197.19C211.284 197.131 210.763 196.514 210.821 195.812C210.88 195.11 211.498 194.586 212.199 194.647C218.769 195.196 224.954 199.31 229.166 205.934C233.52 212.78 234.807 220.862 232.524 227.028C232.333 227.542 231.846 227.861 231.327 227.861Z" fill="#371A45"/>
<path d="M206.621 163.437C204.745 161.131 201.433 161.41 198.728 161.976C197.932 162.233 197.509 161.081 198.291 160.778C201.384 159.579 205.591 159.024 208.306 161.521C209.911 162.717 207.971 164.905 206.621 163.437Z" fill="#371A45"/>
<g opacity="0.25">
<path d="M196.135 235.104L196.064 235.527C195.921 235.364 195.895 235.032 196.135 235.104Z" fill="#371A45"/>
</g>
<g opacity="0.25">
<path d="M146.225 223.88L144.377 225.488C144.918 224.84 145.541 224.304 146.225 223.88Z" fill="#371A45"/>
</g>
<path d="M142.259 334.593C142.167 335.634 141.713 336.634 140.958 337.39C138.712 339.641 134.884 341.376 132.266 343.714C131.153 344.709 129.693 345.209 128.213 345.025L124.559 344.566C123.712 344.459 122.91 344.127 122.242 343.611C121.936 343.387 121.655 343.121 121.405 342.82C119.282 340.253 117.056 338.176 114.749 336.497C112.269 334.69 110.937 331.684 111.35 328.642C111.646 326.437 112.396 324.171 113.402 321.864L112.994 321.318C112.284 320.374 112.203 319.087 112.795 318.062C116.255 312.039 120.889 310.084 126.136 310.242C128.601 310.314 130.964 311.279 132.786 312.937C137.9 317.607 140.672 324.824 142.203 333.393C142.274 333.792 142.29 334.195 142.259 334.593Z" fill="#B4C2D1"/>
<path d="M128.815 346.337C128.562 346.337 128.308 346.322 128.055 346.29L124.401 345.833C122.845 345.639 121.432 344.858 120.42 343.634C118.447 341.248 116.287 339.193 113.999 337.527C111.114 335.426 109.613 331.956 110.083 328.471C110.346 326.525 110.955 324.415 111.94 322.041C110.951 320.687 110.85 318.882 111.685 317.427C115.064 311.547 119.802 308.777 126.174 308.965C128.941 309.046 131.595 310.122 133.646 311.996C138.497 316.426 141.707 323.352 143.459 333.168C143.792 335.037 143.194 336.952 141.86 338.291C140.582 339.574 138.86 340.681 137.195 341.751C135.763 342.672 134.281 343.624 133.116 344.666C131.904 345.748 130.371 346.337 128.815 346.337ZM125.579 311.508C120.431 311.508 116.71 313.803 113.898 318.698C113.562 319.283 113.607 320.011 114.013 320.552C114.013 320.552 114.014 320.553 114.014 320.553L114.423 321.099C114.698 321.466 114.755 321.953 114.572 322.374C113.509 324.811 112.868 326.917 112.613 328.812C112.268 331.367 113.374 333.916 115.501 335.464C117.962 337.256 120.278 339.458 122.387 342.008C122.982 342.728 123.81 343.188 124.717 343.301L128.372 343.758C129.449 343.893 130.557 343.529 131.416 342.763C132.731 341.587 134.299 340.579 135.815 339.604C137.437 338.561 138.969 337.577 140.052 336.49C140.799 335.74 141.134 334.666 140.946 333.616C139.296 324.374 136.346 317.918 131.926 313.88C130.325 312.418 128.256 311.579 126.1 311.516C125.925 311.51 125.751 311.508 125.579 311.508Z" fill="#371A45"/>
<path d="M122.776 313.719C123.55 314.153 124.292 314.605 124.886 315.276C125.505 315.976 125.895 316.824 126.238 317.683C127.013 319.625 127.166 321.738 127.777 323.727C128.091 324.75 128.632 325.69 128.924 326.717C129.24 327.827 128.954 328.927 128.552 329.975C127.871 331.751 126.747 333.284 125.925 334.986C125.469 335.932 124.978 336.862 124.611 337.849C124.272 338.758 123.923 339.797 124.186 340.766C124.249 340.997 124.609 341.068 124.722 340.836C125.14 339.981 125.271 339.013 125.616 338.126C125.991 337.163 126.489 336.279 127.032 335.404C128.087 333.704 129.138 331.909 129.813 330.02C130.193 328.956 130.4 327.833 130.164 326.713C129.929 325.599 129.316 324.596 128.974 323.513C128.306 321.395 128.145 319.105 127.207 317.075C126.462 315.461 124.766 313.464 122.822 313.552C122.736 313.556 122.695 313.674 122.776 313.719Z" fill="#371A45"/>
<path d="M129.34 326.698C129.719 327.02 130.261 327.066 130.725 327.201C131.25 327.354 131.752 327.56 132.221 327.842C133.249 328.461 133.884 329.308 134.379 330.378C134.91 331.526 135.517 332.457 136.522 333.241C137.446 333.962 138.396 334.496 139.581 334.541C139.758 334.548 139.912 334.317 139.798 334.163C139.444 333.685 139.098 333.332 138.605 332.989C138.118 332.651 137.614 332.331 137.168 331.939C136.195 331.083 135.713 329.968 135.016 328.907C134.403 327.973 133.547 327.198 132.556 326.68C131.775 326.272 130.219 325.599 129.401 326.228C129.262 326.335 129.177 326.559 129.34 326.698Z" fill="#371A45"/>
<g opacity="0.25">
<path d="M142.259 334.593C142.167 335.634 141.713 336.634 140.958 337.39C138.712 339.641 134.884 341.376 132.266 343.714C131.153 344.709 129.693 345.209 128.213 345.025L124.559 344.566C123.712 344.459 122.91 344.127 122.242 343.611C123.375 341.621 124.385 339.564 125.279 337.451C125.733 336.379 126.156 335.287 126.764 334.297C127.264 333.48 127.887 332.745 128.366 331.913C129.372 330.178 129.698 328.136 130.01 326.151C131.612 325.753 133.19 326.947 134.134 328.3C135.078 329.652 135.706 331.25 136.92 332.368C138.365 333.69 140.335 334.093 142.259 334.593Z" fill="#371A45"/>
</g>
<path d="M257.999 350.068C256.585 351.829 254.83 353.35 253.421 355.223C252.431 356.529 250.91 357.315 249.277 357.422C249.236 357.428 249.195 357.428 249.154 357.428C246.796 357.576 244.244 357.484 241.57 357.239C240.432 357.137 239.334 356.764 238.37 356.162C237.16 355.401 236.129 354.585 235.272 353.712C234.195 352.615 232.74 351.977 231.204 351.977H221.45C220.169 351.977 218.924 351.538 217.934 350.721C217.209 350.129 216.561 349.532 215.984 348.94C214.586 347.49 214.28 345.316 215.193 343.519C217.174 339.62 220.067 336.236 223.778 333.322C224.212 332.98 224.681 332.709 225.181 332.516C226.314 332.046 227.575 331.944 228.8 332.209C230.791 332.648 232.694 332.873 234.363 332.582L237.711 329.948L239.488 328.555C240.876 327.463 242.606 326.881 244.331 326.947C244.995 326.973 245.653 327.095 246.296 327.315C252.002 329.28 256.014 336.67 258.872 344.117C259.643 346.117 259.336 348.394 257.999 350.068Z" fill="#B4C2D1"/>
<path d="M246.787 358.776C245.161 358.776 243.396 358.688 241.452 358.512C240.124 358.391 238.824 357.952 237.693 357.243C236.406 356.436 235.285 355.548 234.359 354.603C233.507 353.732 232.386 353.253 231.204 353.253H221.451C219.868 353.253 218.33 352.704 217.121 351.708C216.365 351.086 215.675 350.453 215.069 349.827C213.3 348 212.893 345.235 214.055 342.944C216.075 338.965 219.079 335.391 222.987 332.319C224.684 330.984 226.905 330.491 229.071 330.965C231.07 331.402 232.596 331.533 233.839 331.372L238.699 327.553C241.031 325.72 244.027 325.18 246.714 326.107C251.842 327.877 256.208 333.618 260.064 343.659C261.003 346.105 260.593 348.867 258.993 350.865C258.313 351.715 257.56 352.507 256.831 353.274C256.009 354.139 255.159 355.034 254.437 355.991C253.242 357.577 251.391 358.563 249.36 358.696C248.54 358.749 247.685 358.776 246.787 358.776ZM227.453 333.341C226.399 333.341 225.384 333.681 224.564 334.325C220.951 337.165 218.181 340.454 216.33 344.099C215.661 345.419 215.891 347.007 216.902 348.051C216.902 348.052 216.902 348.052 216.902 348.052C217.442 348.609 218.061 349.177 218.743 349.738C219.496 350.359 220.458 350.701 221.451 350.701H231.204C233.078 350.701 234.846 351.453 236.182 352.818C236.967 353.619 237.932 354.38 239.049 355.081C239.841 355.578 240.753 355.885 241.683 355.97C244.565 356.232 247.021 356.29 249.193 356.15C250.482 356.065 251.651 355.447 252.399 354.454C253.208 353.381 254.11 352.433 254.981 351.516C255.705 350.754 256.389 350.035 257.001 349.27C258.036 347.976 258.297 346.176 257.682 344.573C254.163 335.408 250.192 330.007 245.881 328.519C244.048 327.886 241.898 328.284 240.276 329.559L235.151 333.585C234.986 333.715 234.791 333.802 234.583 333.839C232.949 334.125 231.024 334.004 228.526 333.458C228.168 333.38 227.808 333.341 227.453 333.341Z" fill="#371A45"/>
<path d="M246.816 329.729C248.024 331.71 249.248 333.705 250.141 335.858C251 337.931 251.611 340.131 251.891 342.358C252.033 343.484 252.19 344.656 252.187 345.791C252.185 346.939 252.219 348.051 251.953 349.178C251.696 350.27 251.237 351.372 250.822 352.417C250.595 352.991 250.348 353.554 250.069 354.104C249.86 354.516 249.614 354.921 249.589 355.39C249.584 355.488 249.706 355.556 249.787 355.503C250.45 355.079 250.749 354.135 251.044 353.44C251.399 352.603 251.716 351.723 251.907 350.831C252.099 349.927 252.163 348.974 252.308 348.058C252.374 347.636 252.509 347.232 252.579 346.813C252.653 346.369 252.655 345.915 252.691 345.468C252.986 341.778 252.049 338.113 250.523 334.766C249.648 332.848 248.573 331.026 247.182 329.446C247.007 329.246 246.68 329.505 246.816 329.729Z" fill="#371A45"/>
<path d="M226.229 334.09C227.103 334.476 227.849 335.1 228.344 335.923C228.924 336.888 228.978 337.959 228.987 339.058C228.999 340.717 229.131 342.747 230.809 343.606C231.533 343.976 232.499 344.137 233.309 344.121C234.111 344.105 234.587 343.629 234.726 342.854C235.126 340.619 235.235 338.341 235.735 336.121C235.992 334.982 236.358 333.874 236.916 332.845C237.435 331.886 238.185 331.103 238.816 330.222C238.886 330.125 238.77 329.984 238.661 330.02C237.099 330.538 236.172 332.234 235.602 333.672C234.826 335.629 234.622 337.747 234.34 339.816C234.268 340.339 234.196 340.861 234.124 341.384C234.058 341.865 234.067 342.436 233.894 342.894C233.579 343.727 231.72 343.181 231.132 342.866C229.285 341.876 229.917 339.131 229.68 337.45C229.421 335.615 228.212 334.13 226.497 333.457C226.134 333.314 225.87 333.932 226.229 334.09Z" fill="#371A45"/>
<g opacity="0.25">
<path d="M257.999 350.068C256.585 351.829 254.83 353.35 253.421 355.223C252.431 356.529 250.91 357.315 249.277 357.423C249.236 357.428 249.195 357.428 249.154 357.428C250.042 355.524 250.843 353.579 251.568 351.604C252.073 350.216 252.543 348.802 252.701 347.332C252.936 345.143 252.477 342.948 251.971 340.804C251.344 338.145 250.634 335.466 249.312 333.072C248.036 330.76 246.235 328.8 244.331 326.948C244.994 326.973 245.653 327.095 246.296 327.315C252.002 329.28 256.014 336.67 258.872 344.117C259.643 346.117 259.336 348.394 257.999 350.068Z" fill="#371A45"/>
</g>
<g opacity="0.25">
<path d="M237.711 329.948C237.451 330.699 237.114 331.434 236.803 332.163C235.573 335.068 234.766 338.155 234.425 341.289C234.338 342.075 234.144 343.045 233.378 343.254C233.128 343.326 232.863 343.295 232.607 343.259C231.827 343.157 230.974 343.019 230.438 342.443C229.77 341.733 229.826 340.646 229.759 339.676C229.56 336.726 227.733 333.975 225.181 332.516C226.314 332.046 227.575 331.944 228.8 332.209C230.791 332.648 232.694 332.873 234.363 332.582L237.711 329.948Z" fill="#371A45"/>
</g>
<path d="M175.784 308.71C175.868 309.816 176.3 310.836 176.699 311.863C177.103 312.903 177.529 313.935 177.869 314.998C178.621 317.349 178.559 319.662 177.92 322.037C177.28 324.412 176.372 326.706 175.728 329.082C175.082 331.47 174.554 333.906 174.227 336.359C173.867 339.063 173.381 342.016 174.153 344.676C174.204 344.849 174.446 344.843 174.499 344.676C175.258 342.292 175.227 339.727 175.594 337.261C175.966 334.757 176.434 332.273 177.076 329.823C177.71 327.404 178.618 325.061 179.179 322.624C179.723 320.261 179.746 318.004 179.034 315.676C178.676 314.507 178.179 313.386 177.684 312.27C177.147 311.06 176.711 309.8 176.118 308.619C176.04 308.463 175.771 308.533 175.784 308.71Z" fill="#371A45"/>
<path d="M201.359 339.369C203.184 337.433 204.042 334.701 204.503 332.135C205.039 329.147 205.038 326.102 205.143 323.079C205.246 320.106 205.528 317.176 206.418 314.325C207.204 311.806 208.271 309.417 209.718 307.206C210.511 305.995 211.397 304.85 212.375 303.784C213.321 302.752 214.539 301.857 215.059 300.52C215.113 300.382 214.961 300.29 214.846 300.306C213.57 300.494 212.628 301.454 211.767 302.343C210.858 303.281 210.019 304.287 209.25 305.343C207.69 307.486 206.454 309.863 205.559 312.357C204.62 314.976 204.21 317.751 204.106 320.524C203.986 323.736 204.254 326.965 203.966 330.17C203.826 331.723 203.563 333.27 203.103 334.761C202.623 336.317 201.88 337.733 201.021 339.108C200.892 339.314 201.19 339.547 201.359 339.369Z" fill="#371A45"/>
<path d="M228.12 297.049C227.907 298.166 228.099 299.444 228.275 300.56C228.455 301.711 228.784 302.861 229.383 303.868C230.623 305.956 232.983 306.901 234.75 308.456C238.095 311.399 240.29 315.52 241.028 319.902C241.235 321.129 241.314 322.38 241.275 323.625C241.255 324.234 241.209 324.845 241.126 325.45C241.081 325.78 241.017 326.106 240.96 326.434C240.904 326.762 240.999 327.062 240.971 327.394C240.932 327.876 241.593 327.874 241.747 327.499C241.843 327.263 242.021 327.082 242.108 326.844C242.188 326.625 242.2 326.361 242.238 326.13C242.332 325.54 242.404 324.945 242.446 324.349C242.522 323.264 242.504 322.172 242.396 321.09C242.173 318.867 241.595 316.708 240.699 314.662C239.805 312.623 238.576 310.723 237.07 309.081C236.32 308.264 235.499 307.519 234.619 306.844C233.626 306.082 232.499 305.493 231.55 304.675C230.466 303.739 229.853 302.501 229.53 301.123C229.376 300.47 229.283 299.803 229.218 299.136C229.15 298.443 229.177 297.724 228.997 297.049C228.887 296.636 228.206 296.597 228.12 297.049Z" fill="#371A45"/>
<path d="M247.882 328.31C248.131 326.079 248.779 324.085 249.926 322.149C251.045 320.26 252.43 318.538 253.877 316.892C256.823 313.54 260.158 310.466 263.676 307.723C265.299 306.457 266.886 305.19 267.628 303.199C268.384 301.171 268.162 298.921 267.818 296.834C267.064 292.259 265.318 287.613 266.7 282.982C267.417 280.579 268.699 278.399 269.526 276.038C270.299 273.832 270.882 270.995 269.722 268.825C269.379 268.184 268.483 268.646 268.607 269.295C268.814 270.376 268.984 271.424 268.885 272.529C268.786 273.633 268.481 274.72 268.108 275.761C267.352 277.872 266.242 279.838 265.514 281.96C263.961 286.482 265.181 290.987 266.096 295.497C266.523 297.602 266.981 299.892 266.463 302.023C265.956 304.11 264.343 305.369 262.734 306.638C259.229 309.402 256.096 312.515 253.251 315.954C251.734 317.788 250.206 319.672 249.007 321.735C247.878 323.677 246.897 326.019 247.128 328.31C247.177 328.796 247.828 328.793 247.882 328.31Z" fill="#371A45"/>
<path d="M260.297 309.281C260.284 310.251 260.545 311.241 260.623 312.209C260.703 313.206 260.697 314.209 260.654 315.208C260.566 317.234 260.337 319.254 260.307 321.283C260.25 325.238 261.359 328.9 263.724 332.088C264.37 332.959 265.097 333.773 265.632 334.723C265.886 335.175 266.101 335.662 266.162 336.182C266.217 336.643 266.119 337.093 266.225 337.55C266.268 337.732 266.499 337.823 266.656 337.725C268.226 336.747 266.707 334.209 265.972 333.186C264.801 331.558 263.569 330.065 262.73 328.222C261.861 326.312 261.468 324.271 261.424 322.18C261.381 320.075 261.627 317.98 261.727 315.88C261.783 314.694 261.8 313.503 261.699 312.319C261.608 311.259 261.48 310.029 260.865 309.127C260.699 308.883 260.301 308.965 260.297 309.281Z" fill="#371A45"/>
<path d="M280.378 343.834C281.12 342.326 280.167 340.839 279.579 339.454C279.133 338.405 279.038 337.454 279.268 336.331C279.493 335.23 279.754 334.14 279.953 333.033C280.747 328.603 281.223 324.114 281.366 319.614C281.437 317.369 281.423 315.12 281.346 312.874C281.27 310.649 281.04 308.438 280.915 306.216C280.793 304.047 281.007 301.996 281.843 299.978C282.599 298.151 283.632 296.454 284.395 294.63C285.102 292.938 285.506 291.092 285.298 289.254C285.123 287.7 284.464 285.64 282.782 285.181C282.526 285.111 282.303 285.399 282.437 285.629C282.799 286.247 283.259 286.794 283.582 287.436C283.915 288.1 284.086 288.852 284.14 289.59C284.257 291.211 283.881 292.807 283.251 294.293C282.5 296.063 281.506 297.718 280.764 299.493C279.987 301.353 279.65 303.264 279.692 305.278C279.736 307.414 280.037 309.541 280.172 311.672C280.309 313.836 280.36 316.002 280.328 318.17C280.263 322.576 279.886 326.98 279.186 331.331C278.995 332.52 278.769 333.703 278.555 334.889C278.357 335.988 278.092 337.103 278.283 338.222C278.592 340.025 280.329 341.664 279.744 343.567C279.63 343.936 280.202 344.191 280.378 343.834Z" fill="#371A45"/>
<path d="M240.799 271.019C241.525 270.858 241.888 269.662 242.245 269.095C242.76 268.277 243.346 267.508 243.986 266.783C245.26 265.336 246.748 264.09 248.368 263.047C250.033 261.974 251.878 261.173 253.738 260.508C255.66 259.822 257.622 259.488 259.598 259.019C260.591 258.784 261.558 258.418 262.349 257.757C262.864 257.327 263.874 256.272 263.465 255.523C263.344 255.301 263.155 255.171 262.899 255.245C262.464 255.37 262.358 255.889 262.137 256.219C261.537 257.116 260.498 257.55 259.492 257.81C257.487 258.329 255.474 258.634 253.511 259.332C251.693 259.979 249.96 260.842 248.332 261.878C246.553 263.011 244.888 264.31 243.473 265.882C242.772 266.661 242.137 267.501 241.581 268.389C241.197 269.001 240.239 270.214 240.657 270.962C240.685 271.012 240.745 271.031 240.799 271.019Z" fill="#371A45"/>
<path d="M247.238 268.181C247.052 268.211 246.906 268.316 246.747 268.412C246.578 268.514 246.415 268.616 246.261 268.739C245.953 268.982 245.663 269.237 245.38 269.508C245.243 269.639 245.104 269.77 244.976 269.909C244.847 270.05 244.737 270.206 244.61 270.349C244.354 270.635 244.097 270.926 243.92 271.27C243.867 271.372 243.977 271.499 244.084 271.434C244.402 271.238 244.675 270.98 244.951 270.733C245.103 270.597 245.268 270.486 245.421 270.354C245.565 270.231 245.704 270.101 245.846 269.975C246.13 269.722 246.413 269.47 246.693 269.214C246.834 269.085 246.957 268.943 247.085 268.803C247.217 268.659 247.34 268.54 247.415 268.358C247.461 268.245 247.332 268.167 247.238 268.181Z" fill="#371A45"/>
<path d="M187.434 257.595C187.312 257.592 187.245 257.585 187.133 257.636C187.029 257.683 186.942 257.754 186.851 257.822C186.648 257.974 186.494 258.138 186.332 258.33C186.023 258.695 185.722 259.066 185.439 259.452C185.174 259.814 184.925 260.173 184.709 260.564C184.653 260.664 184.594 260.762 184.541 260.863C184.484 260.973 184.456 261.105 184.423 261.191C184.337 261.412 184.221 261.636 184.187 261.873C184.162 262.053 184.342 262.262 184.53 262.136C184.706 262.018 184.87 261.849 185.012 261.693C185.09 261.608 185.181 261.547 185.259 261.465C185.336 261.383 185.4 261.287 185.471 261.2C185.773 260.83 186.055 260.451 186.341 260.067C186.606 259.711 186.867 259.352 187.135 258.998C187.274 258.814 187.411 258.642 187.513 258.434C187.567 258.326 187.632 258.217 187.665 258.101C187.701 257.979 187.668 257.85 187.653 257.761C187.635 257.663 187.527 257.597 187.434 257.595Z" fill="#371A45"/>
<path d="M188.852 259.318C188.563 259.27 188.331 259.402 188.085 259.538C187.831 259.679 187.614 259.855 187.396 260.045C186.978 260.409 186.593 260.795 186.241 261.223C185.89 261.65 185.511 262.102 185.248 262.591C185.107 262.853 184.955 263.132 184.871 263.418C184.836 263.536 184.806 263.66 184.783 263.782C184.75 263.954 184.776 264.072 184.828 264.234C184.866 264.35 184.996 264.446 185.123 264.401C185.24 264.359 185.353 264.337 185.45 264.251C185.55 264.163 185.635 264.054 185.728 263.958C185.927 263.749 186.078 263.497 186.251 263.266C186.551 262.867 186.81 262.435 187.119 262.047C187.446 261.636 187.784 261.23 188.139 260.843C188.325 260.641 188.508 260.448 188.672 260.227C188.831 260.013 189.009 259.823 189.024 259.543C189.029 259.45 188.948 259.335 188.852 259.318Z" fill="#371A45"/>
<path d="M189.72 261.089C189.139 261.265 188.644 261.73 188.238 262.168C187.813 262.626 187.43 263.133 187.079 263.649C186.747 264.135 186.436 264.647 186.182 265.179C186.042 265.473 185.944 265.778 185.859 266.092C185.785 266.369 185.72 266.758 185.834 267.03C185.903 267.195 186.067 267.289 186.238 267.195C186.463 267.072 186.658 266.796 186.787 266.58C186.934 266.335 187.085 266.09 187.216 265.835C187.48 265.321 187.745 264.814 188.062 264.328C188.358 263.874 188.682 263.442 189.038 263.032C189.415 262.597 189.88 262.136 190.119 261.607C190.238 261.345 190.04 260.992 189.72 261.089Z" fill="#371A45"/>
<path d="M190.757 264.043C190.122 265.001 189.548 265.991 188.965 266.982C188.387 267.963 187.877 268.954 187.494 270.028C187.433 270.199 187.686 270.349 187.804 270.209C188.535 269.335 189.132 268.397 189.686 267.403C190.245 266.399 190.809 265.401 191.315 264.369C191.497 263.996 190.988 263.694 190.757 264.043Z" fill="#371A45"/>
<path d="M193.408 268.463C193.169 268.582 192.905 268.662 192.678 268.802C192.446 268.944 192.219 269.104 192.012 269.281C191.618 269.619 191.238 270.013 190.912 270.417C190.579 270.829 190.23 271.268 189.982 271.739C189.742 272.198 189.475 272.709 189.418 273.23C189.396 273.42 189.655 273.492 189.775 273.378C189.952 273.209 190.106 272.988 190.251 272.79C190.397 272.589 190.537 272.385 190.688 272.188C190.994 271.79 191.272 271.374 191.586 270.982C191.901 270.587 192.232 270.214 192.571 269.84C192.744 269.649 192.908 269.448 193.071 269.249C193.237 269.047 193.359 268.821 193.532 268.623C193.608 268.535 193.513 268.411 193.408 268.463Z" fill="#371A45"/>
<path d="M193.528 272.037C193.099 271.954 192.753 272.402 192.504 272.693C192.209 273.04 191.951 273.414 191.693 273.789C191.443 274.152 191.195 274.524 191.03 274.934C190.955 275.123 190.841 275.303 190.792 275.501C190.739 275.711 190.699 275.924 190.652 276.136C190.605 276.345 190.852 276.496 191.012 276.345C191.169 276.197 191.333 276.054 191.493 275.909C191.644 275.773 191.748 275.583 191.887 275.433C192.199 275.093 192.432 274.667 192.68 274.28C192.915 273.914 193.154 273.554 193.376 273.18C193.485 272.996 193.6 272.79 193.661 272.584C193.705 272.436 193.751 272.08 193.528 272.037Z" fill="#371A45"/>
<g opacity="0.25">
<path d="M180.816 257.039C185.34 263.842 188.103 271.805 188.766 279.948C190.412 277.922 192.275 276.073 194.312 274.441C194.543 274.255 194.791 274.052 194.868 273.766C194.922 273.57 194.886 273.362 194.851 273.162C194.018 268.46 193.184 263.759 192.351 259.057C192.322 258.891 192.288 258.715 192.174 258.59C192.059 258.464 191.884 258.415 191.719 258.372C188.536 257.543 185.277 257.009 181.995 256.78L180.816 257.039Z" fill="#371A45"/>
</g>
<g opacity="0.25">
<path d="M224.472 331.597C224.155 333.026 222.706 333.848 221.512 334.7C218.745 336.691 216.831 339.697 215.647 342.892C215.071 344.438 214.657 346.036 214.336 347.654C211.09 347.741 207.737 347.669 204.251 347.383C188.429 347.894 171.244 351.824 157.806 348.404C151.523 346.072 146.123 342.478 141.443 337.87C142.223 336.721 142.877 335.563 142.652 334.23L141.881 330.25C142.627 332.766 144.872 334.511 147.087 335.92C152.11 339.115 158.035 341.565 163.91 340.585C165.364 340.34 166.783 339.891 168.243 339.651C172.035 339.033 175.888 339.86 179.716 340.228C187.872 341.008 196.232 339.62 203.704 336.247C205.588 335.399 207.42 334.425 209.385 333.802C211.442 333.144 213.601 332.888 215.744 332.633C218.654 332.286 221.563 331.944 224.472 331.597Z" fill="#371A45"/>
</g>
<g opacity="0.25">
<path d="M253.254 247.519C261.907 251.304 269.182 259.072 270.573 268.413C270.809 269.999 270.876 271.63 270.537 273.198C269.874 276.261 267.744 278.79 266.616 281.714C264.977 285.961 265.565 290.771 266.982 295.097C267.384 296.323 267.855 297.563 267.826 298.853C267.79 300.369 267.064 301.781 266.246 303.058C264.802 305.312 263.016 307.346 260.968 309.068C259.25 310.514 257.349 311.742 255.712 313.28C251.58 317.162 249.463 322.67 247.474 327.979C245.79 327.617 244.105 327.255 242.421 326.894C241.773 324.517 242.265 321.982 241.968 319.537C241.457 315.332 238.688 311.774 235.801 308.673C232.914 305.573 229.731 302.584 228.028 298.705C227.792 298.166 227.582 297.574 227.708 296.999C227.883 296.2 228.632 295.686 229.296 295.209C233.553 292.155 236.537 287.381 237.418 282.216C238.794 274.158 235.236 266.185 233.759 258.145C239.63 256.87 245.059 253.639 248.98 249.087C249.615 248.35 250.231 247.562 251.072 247.072C251.913 246.582 253.058 246.462 253.817 247.072L253.254 247.519Z" fill="#371A45"/>
</g>
<g opacity="0.25">
<path d="M266.561 340.853C266.938 334.925 261.633 330.065 260.802 324.183C260.124 319.391 262.46 314.202 260.404 309.82C258.399 311.155 256.463 312.621 254.826 314.389C251.792 317.666 249.916 321.824 248.148 325.925C248.025 326.212 247.899 326.519 247.951 326.826C248.002 327.126 248.212 327.37 248.412 327.599C252.106 331.814 255.25 336.51 257.739 341.531C260.403 341.623 263.066 341.715 265.729 341.806L266.561 340.853Z" fill="#371A45"/>
</g>
<g opacity="0.25">
<path d="M293.496 332.858C290.531 336.874 286.948 340.876 283.335 344.469C282.207 345.592 280.691 346.133 279.175 346.056C279.777 344.505 279.905 342.769 279.517 341.151C279.308 340.268 278.956 339.421 278.823 338.528C278.675 337.533 278.802 336.522 278.94 335.532C280.14 326.81 281.783 318.011 280.772 309.268C280.522 307.124 280.114 304.96 280.395 302.816C280.788 299.775 282.513 297.1 283.789 294.308C284.779 292.149 285.488 289.654 285.1 287.377C285.81 288.158 286.346 289.108 286.632 290.164C288.729 297.738 293.047 306.471 296.201 315.755C298.166 321.542 297.13 327.938 293.496 332.858Z" fill="#371A45"/>
</g>
</g>
<defs>
<clipPath id="clip0_983_18">
<rect width="400" height="400" fill="white"/>
</clipPath>
</defs>
</svg>
